<svg width="34" height="27" fill="none" xmlns="http://www.w3.org/2000/svg"><path d="M7 .8C6 3.4 5.2 6 4.5 8.7 4 5.9 3.7 3 3.6.2c0-.4-1.8-.1-1.8.5.1 4 .7 8.1 1.7 12.1L0 26.2c0 .4 1.7.1 1.8-.3 1-3.2 1.7-6.4 2.5-9.6.8 3.1 1.6 6.3 2.2 9.4.1.5 2 0 1.9-.5l-3-12.9c1-4 2-8 3.4-11.8C8.9 0 7 .3 6.9.8zM20.8 1.3c0-1-1.8-.8-1.9.1V2c-1.2 4.3-2.5 8.5-4 12.7l-1.6 5.7L13.2 1c0-1-2-.8-2 .1a683.3 683.3 0 00.3 24.6v.5c.2.8 2 .4 2-.3 1.6-4.1 2.4-8.4 3.8-12.5l1.5-4.6c-.1 5.9 0 11.7.2 17.5 0 1 1.5.8 1.8.1v-.1a.5.5 0 000-.5c-.2-8.3-.3-16.4 0-24.5zM33.3.2c-3 .3-6 .3-9.1 0-.5 0-2.2.9-1.2 1H26l-.1.3c.3 8.2-1 16.8.2 25 0 .3 1.9 0 1.8-.6-1.1-8 .1-16.5-.1-24.6 1.7 0 3.4 0 5.1-.3.8 0 1.6-1 .3-.8z" fill="#231F20"/></svg>