<svg width="16" height="27" fill="none" xmlns="http://www.w3.org/2000/svg"><path d="M16 15.6C15.6 7.9 8.9.6 8.6.2L8.3.1h-.5L7.7 0l-.1.1h-.1C7 .6.3 8 0 15.7v1A11 11 0 007.8 27h.4s7.5-2 7.8-10.4v-.8-.2zM2 12.8A19 19 0 007.2 16v3.6c-1.9-1-4.8-2.7-5.6-4.2 0-1 .2-1.8.4-2.7zm1.6-4.1c1 1 2.3 1.9 3.6 2.4v3.2c-1.7-.8-3.3-1.9-4.6-3.2l1-2.4zm9.8 2.4c-1.3 1.3-2.9 2.4-4.6 3.2v-3.2a9.5 9.5 0 003.6-2.4l1 2.3zM8.8 9.4V3c1 1.3 2 2.7 2.8 4.1a7 7 0 01-2.8 2.3zm0 10.4V16a19 19 0 005.2-3.3l.5 2.7c-.9 1.5-3.8 3.3-5.7 4.2zM7.2 9.4a7 7 0 01-2.8-2.3C5.2 5.7 6.2 4.3 7.2 3v6.5zm-5.5 8.7a26 26 0 005.5 3.4v3.6a9.1 9.1 0 01-3.6-2.8 9.6 9.6 0 01-1.9-4.2zm7 7v-3.6c2-.9 3.9-2 5.6-3.4-.3 1.5-1 3-1.9 4.2a9 9 0 01-3.6 2.8z" fill="#323232"/></svg>