<svg width="16" height="26" fill="none" xmlns="http://www.w3.org/2000/svg"><path d="M9.6 4.1c0-1-.4-2.1-1.2-2.9a4 4 0 00-5.6 0C2 2 1.6 3 1.6 4.2v12c-1 1-1.6 2.4-1.6 4A6 6 0 002.5 25a5.6 5.6 0 007.6-1.2 6 6 0 00-.5-7.9V4.1zm.1 16a4.3 4.3 0 01-1.9 3.6 4 4 0 01-5.5-1.1 4.3 4.3 0 01.9-5.7V4c0-.6.2-1.3.7-1.7a2.4 2.4 0 013.4 0c.4.4.7 1 .7 1.7v12.6a4.1 4.1 0 011.7 3.4z" fill="#323232"/><path d="M6.5 17.6V4.2l-.3-.6a.8.8 0 00-1.1 0l-.2.6v13.4c-.6.2-1 .6-1.3 1a2.5 2.5 0 00.5 3.2 2.3 2.3 0 003.1 0c.4-.4.7-1 .8-1.5.1-.6 0-1.1-.3-1.6s-.7-1-1.2-1.1zM16 3.2h-4.8v1.6H16V3.2zM16 6.5h-4.8V8H16V6.5zM16 9.8h-4.8v1.6H16V9.8zM16 13h-4.8v1.7H16V13z" fill="#323232"/></svg>