<?xml version="1.0" standalone="no"?>
<!DOCTYPE svg PUBLIC "-//W3C//DTD SVG 20010904//EN"
 "http://www.w3.org/TR/2001/REC-SVG-20010904/DTD/svg10.dtd">
<svg version="1.0" xmlns="http://www.w3.org/2000/svg"
 width="152.000000pt" height="152.000000pt" viewBox="0 0 152.000000 152.000000"
 preserveAspectRatio="xMidYMid meet">
<metadata>
Created by potrace 1.14, written by Peter Selinger 2001-2017
</metadata>
<g transform="translate(0.000000,152.000000) scale(0.100000,-0.100000)"
fill="#000000" stroke="none">
<path d="M0 760 l0 -760 760 0 760 0 0 760 0 760 -760 0 -760 0 0 -760z m896
537 c111 -56 179 -189 155 -299 -8 -34 -6 -45 15 -75 29 -43 31 -86 6 -132
-30 -56 -107 -85 -166 -62 -12 4 -35 -1 -64 -16 -58 -29 -107 -29 -164 1 -30
16 -50 21 -59 15 -24 -15 -93 -10 -126 11 -63 38 -81 120 -40 181 20 30 23 44
19 101 -5 76 8 124 49 185 79 115 246 155 375 90z m-242 -616 c10 -11 24 -17
32 -14 9 3 12 0 9 -9 -9 -23 21 -44 40 -28 8 7 12 16 9 21 -11 19 29 8 45 -13
21 -25 45 -16 38 14 -4 15 -1 18 13 13 11 -4 23 1 32 13 10 14 22 18 51 14 20
-2 37 -7 37 -11 0 -3 -40 -114 -89 -246 -116 -317 -105 -316 -217 -10 -46 127
-87 238 -89 247 -5 13 2 18 27 21 18 2 36 5 39 5 3 1 14 -7 23 -17z"/>
<path d="M670 1254 c-46 -20 -97 -69 -122 -118 -16 -32 -19 -52 -15 -105 3
-36 8 -76 12 -88 6 -17 3 -23 -8 -23 -20 0 -47 -38 -47 -66 0 -36 37 -74 74
-74 35 0 58 14 74 45 10 19 11 19 21 -6 25 -68 114 -91 170 -44 16 14 33 35
36 45 6 18 8 18 32 -10 32 -38 79 -41 111 -7 31 33 28 73 -9 108 -24 22 -28
32 -21 46 32 61 18 162 -32 227 -56 74 -189 108 -276 70z"/>
<path d="M630 664 c0 -17 17 -36 24 -26 3 5 -1 15 -9 22 -8 7 -15 9 -15 4z"/>
<path d="M871 656 c-8 -10 -9 -16 -1 -21 5 -3 13 1 16 10 9 22 -1 29 -15 11z"/>
<path d="M655 620 c-3 -5 -1 -19 6 -31 10 -19 12 -20 27 -6 13 13 13 19 2 31
-14 18 -26 20 -35 6z"/>
<path d="M741 616 c-9 -10 -8 -16 4 -26 21 -17 51 6 34 26 -6 8 -15 14 -19 14
-4 0 -13 -6 -19 -14z"/>
<path d="M831 616 c-9 -10 -8 -16 4 -26 19 -16 41 1 32 24 -8 20 -21 20 -36 2z"/>
<path d="M700 576 c-10 -13 -10 -19 0 -32 12 -14 15 -14 29 0 14 15 14 17 0
32 -14 14 -17 14 -29 0z"/>
<path d="M790 576 c-10 -13 -10 -19 0 -32 12 -14 15 -14 29 0 14 15 14 17 0
32 -14 14 -17 14 -29 0z"/>
<path d="M741 526 c-9 -10 -8 -16 4 -26 21 -17 51 6 34 26 -6 8 -15 14 -19 14
-4 0 -13 -6 -19 -14z"/>
<path d="M830 525 c-7 -9 -8 -15 -2 -15 5 0 12 7 16 15 3 8 4 15 2 15 -2 0 -9
-7 -16 -15z"/>
<path d="M680 520 c0 -5 5 -10 10 -10 6 0 10 5 10 10 0 6 -4 10 -10 10 -5 0
-10 -4 -10 -10z"/>
<path d="M705 490 c-3 -6 -3 -19 0 -31 6 -19 8 -20 26 -3 14 13 16 20 8 31
-14 16 -26 17 -34 3z"/>
<path d="M790 485 c-10 -12 -10 -18 0 -30 15 -18 30 -11 30 15 0 26 -15 33
-30 15z"/>
<path d="M750 446 c-10 -13 -10 -19 0 -32 12 -14 15 -14 29 0 14 15 14 17 0
32 -14 14 -17 14 -29 0z"/>
<path d="M785 399 c-4 -6 -5 -12 -2 -15 2 -3 7 2 10 11 7 17 1 20 -8 4z"/>
<path d="M730 390 c0 -5 5 -10 11 -10 5 0 7 5 4 10 -3 6 -8 10 -11 10 -2 0 -4
-4 -4 -10z"/>
<path d="M747 363 c-3 -5 0 -19 5 -33 l10 -25 9 23 c9 24 5 42 -11 42 -5 0
-11 -3 -13 -7z"/>
</g>
</svg>
